<svg width="298" height="244" viewBox="0 0 298 244" fill="none" xmlns="http://www.w3.org/2000/svg">
<path d="M238.96 39.5996H60.7501C54.813 39.5996 50 44.408 50 50.3395V189.771C50 195.702 54.813 200.511 60.7501 200.511H238.96C244.897 200.511 249.71 195.702 249.71 189.771V50.3395C249.71 44.408 244.897 39.5996 238.96 39.5996Z" fill="#707070"/>
<path d="M82.6898 194.923L79.4819 221.224C79.4819 222.804 81.3955 223.594 82.514 222.477L111.796 193.223C112.911 192.109 112.132 190.209 110.558 190.193L84.4835 193.147C83.4968 193.139 82.6938 193.937 82.6938 194.919L82.6898 194.923Z" fill="#707070"/>
<circle cx="108" cy="124" r="12" fill="white"/>
<circle cx="146" cy="124" r="12" fill="white"/>
<circle cx="184" cy="124" r="12" fill="white"/>
</svg>
