<svg width="297" height="223" viewBox="0 0 297 223" fill="none" xmlns="http://www.w3.org/2000/svg">
<g clip-path="url(#clip0_94_67)">
<path d="M237.96 39.5996H59.7501C53.813 39.5996 49 44.408 49 50.3395V189.771C49 195.702 53.813 200.511 59.7501 200.511H237.96C243.897 200.511 248.71 195.702 248.71 189.771V50.3395C248.71 44.408 243.897 39.5996 237.96 39.5996Z" fill="white"/>
<path d="M81.6898 194.923L78.4819 221.224C78.4819 222.804 80.3955 223.594 81.514 222.477L110.796 193.223C111.911 192.109 111.132 190.209 109.558 190.193L83.4835 193.147C82.4968 193.139 81.6938 193.937 81.6938 194.919L81.6898 194.923Z" fill="white"/>
<circle cx="107" cy="124" r="12" fill="#6AC1B7"/>
<circle cx="145" cy="124" r="12" fill="#6AC1B7"/>
<circle cx="183" cy="124" r="12" fill="#6AC1B7"/>
</g>
<defs>
<clipPath id="clip0_94_67">
<rect width="297" height="223" fill="white"/>
</clipPath>
</defs>
</svg>
