<svg width="470" height="470" viewBox="0 0 470 470" fill="none" xmlns="http://www.w3.org/2000/svg">
<rect width="470" height="470" rx="235" fill="url(#paint0_linear_212_204)"/>
<path d="M384.956 125.586L414.304 107.345L404.317 97.9316L384.956 125.586Z" fill="white"/>
<path d="M395.639 140.509L430.749 138.726L427.169 125.849L395.639 140.509Z" fill="white"/>
<path d="M370.393 116.992L385.441 87.0519L371.722 83.8876L370.393 116.992Z" fill="white"/>
<path d="M352.825 133.177H117.612C109.776 133.177 103.423 139.162 103.423 146.545V320.093C103.423 327.476 109.776 333.461 117.612 333.461H352.825C360.661 333.461 367.013 327.476 367.013 320.093V146.545C367.013 139.162 360.661 133.177 352.825 133.177Z" fill="white"/>
<path d="M146.569 326.506L142.335 359.243C142.335 361.21 144.861 362.194 146.337 360.803L184.986 324.39C186.457 323.004 185.429 320.64 183.351 320.62L148.937 324.296C147.634 324.286 146.574 325.279 146.574 326.501L146.569 326.506Z" fill="white"/>
<path d="M307.477 274.051L307.431 187.927L162.976 188L163.022 274.124L307.477 274.051Z" fill="#FF8C93"/>
<path d="M307.47 274.043C307.47 274.043 263.712 227.889 235.219 227.899C206.725 227.909 163.015 274.103 163.015 274.103C163.015 274.103 211.892 232.663 235.224 232.653C258.555 232.643 307.47 274.038 307.47 274.038V274.043Z" fill="#FF199D"/>
<path d="M235.229 248.097L307.427 194.114V187.92L162.973 187.984V194.174L235.229 248.097Z" fill="#FF199D"/>
<path d="M307.47 274.043C307.47 274.043 263.712 227.889 235.219 227.899C206.725 227.909 163.015 274.103 163.015 274.103C163.015 274.103 211.892 232.663 235.224 232.653C258.555 232.643 307.47 274.038 307.47 274.038V274.043Z" fill="#EB6367"/>
<path d="M235.229 248.097L307.427 194.114V187.92L162.973 187.984V194.174L235.229 248.097Z" fill="#EB6367"/>
<path d="M162.973 187.984L235.224 241.903L307.427 187.92L162.973 187.984Z" fill="#FFABAF"/>
<defs>
<linearGradient id="paint0_linear_212_204" x1="-104.5" y1="-24" x2="520.5" y2="501.5" gradientUnits="userSpaceOnUse">
<stop offset="0.530147" stop-color="#E17B80"/>
<stop offset="1" stop-color="white"/>
</linearGradient>
</defs>
</svg>
