<svg width="294" height="175" viewBox="0 0 294 175" fill="none" xmlns="http://www.w3.org/2000/svg">
<g clip-path="url(#clip0_51_471)">
<path d="M17.4447 72.6907C6.67354 93.5743 0.599509 118.799 0.69174 148.162C44.8833 163.557 94.4966 172.24 146.969 172.24C199.442 172.24 249.055 163.557 293.247 148.162C293.55 51.794 227.394 0 146.963 0C91.038 0 42.0176 25.0406 17.4447 72.6907Z" fill="#FF8C93"/>
<path d="M0.691742 148.162C44.8833 163.557 94.4967 172.24 146.969 172.24C199.442 172.24 249.055 163.557 293.247 148.162" stroke="#E67478" stroke-width="4.19648" stroke-miterlimit="10"/>
<path d="M146.963 154.17C146.963 154.17 221.676 146.205 269.366 94.5428C269.366 94.5428 279.3 115.077 275.328 137.931C275.328 137.931 203.401 163.116 146.963 154.17Z" fill="#EB777B"/>
<path opacity="0.6" d="M36.9185 83.1852C36.9185 83.1852 59.7258 37.6234 99.4705 32.6562" stroke="white" stroke-width="14.8162" stroke-linecap="round" stroke-linejoin="round"/>
<path d="M197.637 55.9773L174.52 69.7855L204.521 83.1852" stroke="white" stroke-width="6.58789" stroke-linecap="round" stroke-linejoin="round"/>
<path d="M95.0896 55.9773L118.206 69.7855L88.2053 83.1852" stroke="white" stroke-width="6.58789" stroke-linecap="round" stroke-linejoin="round"/>
<path d="M88.2053 153.076C88.2053 153.076 108.12 148.162 111.098 130.302" stroke="white" stroke-width="4.94091" stroke-linecap="round" stroke-linejoin="round"/>
<path d="M114.043 129.636C122.193 129.636 128.8 123.938 128.8 116.909C128.8 109.879 122.193 104.181 114.043 104.181C105.893 104.181 99.2861 109.879 99.2861 116.909C99.2861 123.938 105.893 129.636 114.043 129.636Z" stroke="white" stroke-width="4.94091" stroke-linecap="round" stroke-linejoin="round"/>
<path d="M197.445 153.076C197.445 153.076 178.914 148.162 176.582 130.302" stroke="white" stroke-width="4.94091" stroke-linecap="round" stroke-linejoin="round"/>
<path d="M173.637 129.636C181.787 129.636 188.394 123.938 188.394 116.909C188.394 109.879 181.787 104.181 173.637 104.181C165.487 104.181 158.88 109.879 158.88 116.909C158.88 123.938 165.487 129.636 173.637 129.636Z" stroke="white" stroke-width="4.94091" stroke-linecap="round" stroke-linejoin="round"/>
<path d="M236.492 94.5428L233.172 107.712" stroke="white" stroke-width="1.64697" stroke-linecap="round" stroke-linejoin="round"/>
<path d="M242.836 94.5428L239.516 107.712" stroke="white" stroke-width="1.64697" stroke-linecap="round" stroke-linejoin="round"/>
<path d="M249.18 94.5428L245.86 107.712" stroke="white" stroke-width="1.64697" stroke-linecap="round" stroke-linejoin="round"/>
<path d="M255.524 94.5428L252.204 107.712" stroke="white" stroke-width="1.64697" stroke-linecap="round" stroke-linejoin="round"/>
<path d="M36.5891 94.5428L33.2688 107.712" stroke="white" stroke-width="1.64697" stroke-linecap="round" stroke-linejoin="round"/>
<path d="M42.9332 94.5428L39.6129 107.712" stroke="white" stroke-width="1.64697" stroke-linecap="round" stroke-linejoin="round"/>
<path d="M49.2774 94.5428L45.9571 107.712" stroke="white" stroke-width="1.64697" stroke-linecap="round" stroke-linejoin="round"/>
<path d="M55.6215 94.5428L52.3012 107.712" stroke="white" stroke-width="1.64697" stroke-linecap="round" stroke-linejoin="round"/>
</g>
<defs>
<clipPath id="clip0_51_471">
<rect width="293.932" height="174.329" fill="white"/>
</clipPath>
</defs>
</svg>
