<?xml version="1.0" encoding="UTF-8"?>
<svg id="_レイヤー_2" data-name="レイヤー 2" xmlns="http://www.w3.org/2000/svg" viewBox="0 0 156.52 156.52">
  <defs>
    <style>
      .cls-1 {
        fill: #fff;
      }

      .cls-2 {
        stroke: #ff8c93;
        stroke-width: 1.77px;
      }

      .cls-2, .cls-3 {
        stroke-linecap: round;
        stroke-linejoin: round;
      }

      .cls-2, .cls-3, .cls-4 {
        fill: none;
      }

      .cls-3 {
        stroke-width: 6.77px;
      }

      .cls-3, .cls-5 {
        stroke: #fff;
      }

      .cls-6, .cls-5 {
        fill: #ff8c93;
      }

      .cls-5 {
        stroke-width: 1.37px;
      }

      .cls-5, .cls-4 {
        stroke-miterlimit: 10;
      }

      .cls-7 {
        fill: #eb777b;
      }

      .cls-4 {
        stroke: #eb777b;
        stroke-width: 1.42px;
      }
    </style>
  </defs>
  <g id="main_プチ_のコピー" data-name="main（プチ）のコピー">
    <circle class="cls-1" cx="78.26" cy="78.26" r="78.26"/>
    <g>
      <path class="cls-6" d="M34.78,81.26c-3.65,7.09-5.72,15.64-5.68,25.61,14.99,5.22,31.83,8.17,49.63,8.17s34.64-2.95,49.63-8.17c.1-32.7-22.34-50.27-49.63-50.27-18.98,0-35.61,8.5-43.95,24.67Z"/>
      <path class="cls-4" d="M29.1,106.87c14.99,5.22,31.83,8.17,49.63,8.17s34.64-2.95,49.63-8.17"/>
      <path class="cls-7" d="M78.73,108.91s25.35-2.7,41.53-20.23c0,0,3.37,6.97,2.02,14.72,0,0-24.41,8.55-43.56,5.51Z"/>
      <path class="cls-3" d="M41.39,85.82s7.74-15.46,21.23-17.15"/>
    </g>
    <g>
      <g>
        <line class="cls-5" x1="106.52" y1="106.37" x2="110.88" y2="110.73"/>
        <line class="cls-5" x1="111.69" y1="104.27" x2="115.16" y2="107.74"/>
        <line class="cls-5" x1="116.58" y1="101.69" x2="120.05" y2="105.17"/>
      </g>
      <path class="cls-5" d="M102.03,127.64c-1.85-.13-3.24-1.74-3.1-3.59h0c.14-1.85,1.74-3.23,3.59-3.1l9.54,.64-19.03-19.03c-1.34-1.34-1.34-3.52,0-4.87h0c1.34-1.34,3.52-1.34,4.87,0l9.08,9.08c.07-.72,.37-1.41,.92-1.96h0c1.03-1.03,2.59-1.21,3.8-.53,.03-.78,.34-1.54,.93-2.13h0c1.08-1.08,2.73-1.22,3.96-.44,.06-.67,.35-1.33,.87-1.84,1.15-1.13,3.13-1.02,4.27,.12l7.06,7.06c1.03,1.03,1.9,2.22,2.57,3.52l3.14,6.06,3.62,3.62-13.03,13.03-2.99-2.99-20.07-2.64Z"/>
      <g>
        <line class="cls-5" x1="106.52" y1="106.37" x2="110.88" y2="110.73"/>
        <line class="cls-5" x1="111.69" y1="104.27" x2="115.16" y2="107.74"/>
        <line class="cls-5" x1="116.58" y1="101.69" x2="120.05" y2="105.17"/>
      </g>
    </g>
    <line class="cls-2" x1="33.03" y1="37.24" x2="42.64" y2="50.96"/>
    <line class="cls-2" x1="116.01" y1="50.96" x2="125.62" y2="37.24"/>
    <g>
      <path class="cls-6" d="M59.42,36.33c.41-.41,.91-.62,1.49-.62s1.08,.21,1.49,.62c.41,.41,.62,.91,.62,1.49s-.21,1.08-.62,1.49-.91,.62-1.49,.62c-.07,0-.11,.04-.11,.11,.01,.11,.01,.23,0,.35-.29,2.59-1.17,4.58-2.64,5.99-1.47,1.41-3.57,2.3-6.31,2.67-.21,.03-.4-.02-.57-.14-.17-.13-.28-.29-.32-.51-.04-.19,0-.37,.13-.54s.29-.26,.49-.29c2.48-.35,4.34-1.16,5.55-2.42,1.22-1.26,1.91-3.11,2.07-5.55,0-.08-.04-.12-.12-.12h-8.81c-.21,0-.39-.07-.54-.22s-.22-.32-.22-.54,.07-.39,.22-.54c.15-.15,.33-.22,.54-.22h8.41c.08,0,.12-.04,.12-.11v-.04c0-.58,.21-1.08,.62-1.49Zm.8,2.19c.19,.19,.42,.29,.69,.29s.5-.1,.69-.29c.19-.19,.29-.42,.29-.69s-.1-.5-.29-.69-.42-.29-.69-.29-.5,.1-.69,.29-.29,.42-.29,.69,.1,.5,.29,.69Z"/>
      <path class="cls-6" d="M65.02,43.71c-.19,0-.36-.07-.5-.21s-.21-.31-.21-.51,.07-.37,.2-.51,.3-.2,.5-.2h5.31c.08,0,.12-.04,.12-.14v-2.55c0-.08-.04-.12-.12-.12-1.14,.1-2.38,.16-3.71,.17-.2,0-.37-.07-.51-.21-.14-.14-.21-.31-.21-.51s.07-.37,.21-.51,.31-.2,.5-.2c1.73,0,3.21-.1,4.45-.26,1.24-.17,2.45-.43,3.62-.79,.2-.06,.39-.05,.57,.04,.18,.09,.3,.23,.36,.42,.06,.2,.04,.39-.05,.57-.1,.18-.24,.3-.43,.36-.95,.3-1.92,.53-2.93,.69-.08,.02-.12,.07-.12,.15v2.75c0,.09,.04,.14,.12,.14h4.21c.2,0,.37,.07,.51,.21,.14,.14,.21,.31,.21,.5,0,.2-.07,.37-.22,.51-.15,.14-.32,.21-.51,.21h-4.27c-.07,0-.12,.05-.14,.14-.16,1.52-.59,2.69-1.29,3.52-.7,.83-1.74,1.42-3.12,1.77-.2,.05-.39,.02-.57-.08s-.3-.26-.36-.46c-.06-.19-.04-.37,.05-.54s.24-.27,.43-.32c1.03-.28,1.79-.72,2.29-1.32s.81-1.46,.94-2.57c.02-.09-.02-.14-.12-.14h-5.24Z"/>
      <path class="cls-6" d="M81.86,42.38c-.2,.05-.39,.02-.56-.09-.17-.11-.28-.26-.32-.45-.05-.2-.02-.39,.09-.56,.11-.17,.26-.28,.45-.32,2.12-.48,3.72-.72,4.8-.72,3.08,0,4.62,1.28,4.62,3.85,0,3.06-2.38,4.65-7.15,4.78-.19,0-.36-.05-.5-.19-.15-.14-.23-.3-.25-.51-.01-.19,.05-.36,.17-.5s.29-.22,.49-.23c1.96-.06,3.39-.36,4.29-.89,.9-.53,1.34-1.31,1.34-2.32,0-.88-.25-1.52-.75-1.92-.5-.41-1.3-.61-2.4-.61-.92,0-2.35,.23-4.32,.68Z"/>
      <path class="cls-6" d="M101.21,49.22c-1.86,0-3.27-.3-4.23-.91s-1.43-1.48-1.43-2.64c0-1.31,.84-2.49,2.52-3.53,.07-.04,.08-.1,.04-.18,0-.02-.02-.04-.03-.06s-.01-.04-.01-.06c-.38-1.55-.67-2.91-.88-4.09-.04-.23,0-.44,.14-.62,.13-.18,.31-.29,.54-.33,.22-.04,.42,0,.61,.14,.19,.14,.3,.31,.34,.54,.23,1.29,.49,2.53,.78,3.71,.02,.09,.07,.12,.15,.08,1.43-.62,3.18-1.19,5.27-1.69,.2-.05,.38-.02,.54,.09,.16,.11,.26,.26,.3,.45,.04,.2,0,.39-.11,.57-.11,.18-.26,.28-.45,.32-2.71,.65-4.73,1.38-6.08,2.17-1.35,.79-2.02,1.6-2.02,2.42,0,1.46,1.33,2.19,4,2.19,1.38,0,2.72-.09,4.03-.27,.2-.03,.38,.02,.54,.14,.16,.12,.24,.28,.26,.47,.02,.2-.03,.38-.15,.54-.12,.16-.28,.26-.47,.29-1.35,.18-2.75,.27-4.21,.27Z"/>
    </g>
  </g>
</svg>