<svg width="297" height="223" viewBox="0 0 297 223" fill="none" xmlns="http://www.w3.org/2000/svg">
<g clip-path="url(#clip0_91_48)">
<path d="M262.305 33.5014L284.54 18.8462L276.974 11.2832L262.305 33.5014Z" fill="white"/>
<path d="M270.398 45.4905L297 44.0577L294.288 33.7129L270.398 45.4905Z" fill="white"/>
<path d="M251.271 26.5964L262.672 2.5423L252.278 0L251.271 26.5964Z" fill="white"/>
<path d="M237.96 39.5996H59.7501C53.813 39.5996 49 44.408 49 50.3395V189.771C49 195.702 53.813 200.511 59.7501 200.511H237.96C243.897 200.511 248.71 195.702 248.71 189.771V50.3395C248.71 44.408 243.897 39.5996 237.96 39.5996Z" fill="white"/>
<path d="M81.6898 194.923L78.4819 221.224C78.4819 222.804 80.3955 223.594 81.514 222.477L110.796 193.223C111.911 192.109 111.132 190.209 109.558 190.193L83.4835 193.147C82.4968 193.139 81.6938 193.937 81.6938 194.919L81.6898 194.923Z" fill="white"/>
<path d="M203.603 152.779L203.567 83.5859L94.1201 83.6432L94.1564 152.836L203.603 152.779Z" fill="#FF8C93"/>
<path d="M203.596 152.772C203.596 152.772 170.443 115.691 148.855 115.699C127.267 115.707 94.1494 152.82 94.1494 152.82C94.1494 152.82 131.182 119.527 148.859 119.519C166.536 119.511 203.596 152.768 203.596 152.768V152.772Z" fill="#FF199D"/>
<path d="M148.863 131.928L203.564 88.5569V83.5801L94.1177 83.632V88.6048L148.863 131.928Z" fill="#FF199D"/>
<path d="M203.596 152.772C203.596 152.772 170.443 115.691 148.855 115.699C127.267 115.707 94.1494 152.82 94.1494 152.82C94.1494 152.82 131.182 119.527 148.859 119.519C166.536 119.511 203.596 152.768 203.596 152.768V152.772Z" fill="#EB6367"/>
<path d="M148.863 131.928L203.564 88.5569V83.5801L94.1177 83.632V88.6048L148.863 131.928Z" fill="#EB6367"/>
<path d="M94.1177 83.632L148.859 126.951L203.564 83.5801L94.1177 83.632Z" fill="#FFABAF"/>
</g>
<defs>
<clipPath id="clip0_91_48">
<rect width="297" height="223" fill="white"/>
</clipPath>
</defs>
</svg>
