<svg width="156" height="156" viewBox="0 0 156 156" fill="none" xmlns="http://www.w3.org/2000/svg">
<path d="M143 50.765V81.25H116.48C115.7 81.185 114.01 80.21 113.62 79.495L106.86 66.69C104.195 61.62 99.58 58.76 94.64 59.02C89.7 59.28 85.475 62.595 83.33 67.99L74.36 90.48L73.06 87.1C69.875 78.845 60.775 72.605 51.805 72.605L13 72.8V50.765C13 27.105 27.105 13 50.765 13H105.235C128.895 13 143 27.105 143 50.765Z" fill="#6AC1B7"/>
<path d="M143 105.235V91.0002H116.48C112.125 91.0002 106.99 87.8802 104.975 84.0452L98.215 71.2402C96.395 67.7952 93.795 67.9902 92.365 71.5652L77.415 109.33C75.79 113.555 73.06 113.555 71.37 109.33L63.96 90.6102C62.205 86.0602 56.745 82.3552 51.87 82.3552L13 82.5502V105.235C13 128.505 26.65 142.545 49.595 142.935C50.31 143 51.09 143 51.805 143H103.805C104.78 143 105.755 143 106.665 142.935C129.48 142.415 143 128.44 143 105.235Z" fill="#6AC1B7"/>
<path d="M12.9999 82.5498V104.065C12.8699 101.985 12.8049 99.7748 12.8049 97.4998V82.5498H12.9999Z" fill="#6AC1B7"/>
</svg>
