<svg width="156" height="156" viewBox="0 0 156 156" fill="none" xmlns="http://www.w3.org/2000/svg">
<path opacity="0.4" d="M123.5 58.5C123.5 67.925 120.705 76.5701 115.895 83.7851C108.875 94.1851 97.76 101.53 84.825 103.415C82.615 103.805 80.34 104 78 104C75.66 104 73.385 103.805 71.175 103.415C58.24 101.53 47.125 94.1851 40.105 83.7851C35.295 76.5701 32.5 67.925 32.5 58.5C32.5 33.345 52.845 13 78 13C103.155 13 123.5 33.345 123.5 58.5Z" fill="#E7AF17"/>
<path d="M138.125 120.055L127.4 122.59C124.995 123.175 123.11 124.995 122.59 127.4L120.315 136.955C119.08 142.155 112.45 143.715 109.005 139.62L78 104L46.995 139.685C43.55 143.78 36.92 142.22 35.685 137.02L33.41 127.465C32.825 125.06 30.94 123.175 28.6 122.655L17.875 120.12C12.935 118.95 11.18 112.775 14.755 109.2L40.105 83.8496C47.125 94.2496 58.24 101.595 71.175 103.48C73.385 103.87 75.66 104.065 78 104.065C80.34 104.065 82.615 103.87 84.825 103.48C97.76 101.595 108.875 94.2496 115.895 83.8496L141.245 109.2C144.82 112.71 143.065 118.885 138.125 120.055Z" fill="#E7AF17"/>
<path d="M81.7701 38.87L85.6051 46.54C86.1251 47.58 87.4901 48.62 88.7251 48.815L95.6801 49.9849C100.1 50.6999 101.14 53.95 97.9551 57.135L92.5601 62.5299C91.6501 63.4399 91.1301 65.195 91.4551 66.495L93.0151 73.19C94.2501 78.455 91.4551 80.5349 86.7751 77.7399L80.2751 73.9049C79.1051 73.1899 77.1551 73.1899 75.9851 73.9049L69.4851 77.7399C64.8051 80.4699 62.0101 78.455 63.2451 73.19L64.8051 66.495C65.0651 65.26 64.6101 63.4399 63.7001 62.5299L58.3051 57.135C55.1201 53.95 56.1601 50.7649 60.5801 49.9849L67.5351 48.815C68.7051 48.62 70.0701 47.58 70.5901 46.54L74.4251 38.87C76.3101 34.71 79.6901 34.71 81.7701 38.87Z" fill="#E7AF17"/>
</svg>
