<svg width="156" height="156" viewBox="0 0 156 156" fill="none" xmlns="http://www.w3.org/2000/svg">
<g clip-path="url(#clip0_198_232)">
<path d="M9.25841 102.362C3.54176 113.383 0.318055 126.695 0.367005 142.191C23.821 150.316 50.1526 154.898 78.0016 154.898C105.851 154.898 132.182 150.316 155.636 142.191C155.797 91.3337 120.686 64 77.9981 64C48.317 64 22.3001 77.2149 9.25841 102.362Z" fill="#FF8C93"/>
<path d="M0.367188 142.19C23.8212 150.315 50.1528 154.898 78.0018 154.898C105.851 154.898 132.182 150.315 155.636 142.19" stroke="#E67478" stroke-width="2.22256" stroke-miterlimit="10"/>
<path d="M77.9983 145.361C77.9983 145.361 117.651 141.158 142.962 113.894C142.962 113.894 148.234 124.73 146.126 136.791C146.126 136.791 107.952 150.082 77.9983 145.361Z" fill="#EB777B"/>
<path opacity="0.6" d="M19.594 107.901C19.594 107.901 31.6986 83.8558 52.7925 81.2344" stroke="white" stroke-width="7.84699" stroke-linecap="round" stroke-linejoin="round"/>
<path d="M104.893 93.542L92.624 100.829L108.547 107.901" stroke="white" stroke-width="3.4891" stroke-linecap="round" stroke-linejoin="round"/>
<path d="M50.4675 93.542L62.7364 100.829L46.8137 107.901" stroke="white" stroke-width="3.4891" stroke-linecap="round" stroke-linejoin="round"/>
<path d="M46.8137 144.784C46.8137 144.784 57.3834 142.19 58.9638 132.765" stroke="white" stroke-width="2.61683" stroke-linecap="round" stroke-linejoin="round"/>
<path d="M60.5268 132.414C64.8523 132.414 68.3588 129.407 68.3588 125.697C68.3588 121.988 64.8523 118.98 60.5268 118.98C56.2013 118.98 52.6948 121.988 52.6948 125.697C52.6948 129.407 56.2013 132.414 60.5268 132.414Z" stroke="white" stroke-width="2.61683" stroke-linecap="round" stroke-linejoin="round"/>
<path d="M104.791 144.784C104.791 144.784 94.9558 142.19 93.718 132.765" stroke="white" stroke-width="2.61683" stroke-linecap="round" stroke-linejoin="round"/>
<path d="M92.1555 132.414C96.481 132.414 99.9875 129.407 99.9875 125.697C99.9875 121.988 96.481 118.98 92.1555 118.98C87.83 118.98 84.3235 121.988 84.3235 125.697C84.3235 129.407 87.83 132.414 92.1555 132.414Z" stroke="white" stroke-width="2.61683" stroke-linecap="round" stroke-linejoin="round"/>
<path d="M125.515 113.894L123.752 120.843" stroke="white" stroke-width="0.872276" stroke-linecap="round" stroke-linejoin="round"/>
<path d="M128.882 113.894L127.12 120.843" stroke="white" stroke-width="0.872276" stroke-linecap="round" stroke-linejoin="round"/>
<path d="M132.249 113.894L130.487 120.843" stroke="white" stroke-width="0.872276" stroke-linecap="round" stroke-linejoin="round"/>
<path d="M135.616 113.894L133.854 120.843" stroke="white" stroke-width="0.872276" stroke-linecap="round" stroke-linejoin="round"/>
<path d="M19.4192 113.894L17.657 120.843" stroke="white" stroke-width="0.872276" stroke-linecap="round" stroke-linejoin="round"/>
<path d="M22.7861 113.894L21.0239 120.843" stroke="white" stroke-width="0.872276" stroke-linecap="round" stroke-linejoin="round"/>
<path d="M26.1533 113.894L24.3911 120.843" stroke="white" stroke-width="0.872276" stroke-linecap="round" stroke-linejoin="round"/>
<path d="M29.5203 113.894L27.7581 120.843" stroke="white" stroke-width="0.872276" stroke-linecap="round" stroke-linejoin="round"/>
<path d="M88.2942 6.84277C84.2983 6.84277 80.7219 8.78553 78.4921 11.7659C76.2623 8.78553 72.6859 6.84277 68.69 6.84277C61.9124 6.84277 56.4153 12.362 56.4153 19.1837C56.4153 21.8109 56.8347 24.2393 57.5633 26.4911C61.0514 37.5296 71.8028 44.1305 77.1233 45.9408C77.874 46.2057 79.1103 46.2057 79.8609 45.9408C85.1814 44.1305 95.9328 37.5296 99.4209 26.4911C100.149 24.2393 100.569 21.8109 100.569 19.1837C100.569 12.362 95.0718 6.84277 88.2942 6.84277Z" fill="#EB6367"/>
</g>
<defs>
<clipPath id="clip0_198_232">
<rect width="156" height="156" fill="white"/>
</clipPath>
</defs>
</svg>
