<svg width="156" height="156" viewBox="0 0 156 156" fill="none" xmlns="http://www.w3.org/2000/svg">
<path d="M110.5 19.5H45.5C26 19.5 13 29.25 13 52V97.5C13 120.25 26 130 45.5 130H68.705C72.54 130 75.66 126.62 75.14 122.785C74.49 118.17 74.62 113.36 75.595 108.42C79.04 91.52 92.95 78.065 109.98 75.27C118.495 73.905 126.62 75.075 133.77 78.195C138.125 80.08 143 77.09 143 72.345V52C143 29.25 130 19.5 110.5 19.5ZM113.555 55.835L93.21 72.085C88.92 75.53 83.46 77.22 78 77.22C72.54 77.22 67.015 75.53 62.79 72.085L42.445 55.835C40.365 54.145 40.04 51.09 41.665 48.945C43.355 46.865 46.41 46.475 48.49 48.165L68.835 64.415C73.775 68.38 82.16 68.38 87.1 64.415L107.445 48.165C109.525 46.475 112.645 46.8 114.27 48.945C115.96 51.09 115.635 54.145 113.555 55.835Z" fill="#EB777B"/>
<path d="M117 84.5C99.06 84.5 84.5 98.995 84.5 117C84.5 134.94 99.06 149.5 117 149.5C135.005 149.5 149.5 134.94 149.5 117C149.5 98.995 135.005 84.5 117 84.5ZM130.325 114.075L127.92 116.415L113.75 130.65C113.1 131.235 111.865 131.885 110.955 132.015L104.585 132.925C102.31 133.25 100.685 131.625 101.01 129.35L101.92 122.98C102.05 122.07 102.635 120.835 103.285 120.185L117.455 106.08L119.795 103.675C121.355 102.115 123.11 101.075 124.93 101.075C126.49 101.075 128.245 101.79 130.195 103.675C134.55 107.9 133.185 111.215 130.325 114.075Z" fill="#EB777B"/>
</svg>
