<?xml version="1.0" encoding="UTF-8"?>
<svg id="_レイヤー_2" data-name="レイヤー 2" xmlns="http://www.w3.org/2000/svg" xmlns:xlink="http://www.w3.org/1999/xlink" viewBox="0 0 572 1071">
  <defs>
    <style>
      .cls-1 {
        fill: #fde284;
      }

      .cls-2 {
        fill: #fde699;
      }

      .cls-3 {
        clip-path: url(#clippath);
      }

      .cls-4 {
        fill: none;
      }
    </style>
    <clipPath id="clippath">
      <rect class="cls-4" x="-249.5" y="249.5" width="1071" height="572" transform="translate(821.5 249.5) rotate(90)"/>
    </clipPath>
  </defs>
  <g id="background">
    <g class="cls-3">
      <g>
        <rect class="cls-1" x="-277.37" y="198.15" width="1126.75" height="712.5" transform="translate(840.4 268.4) rotate(90)"/>
        <path class="cls-2" d="M286,1254.93c-48.39,0-96.86-4.97-144.07-14.78l112.16-539.93c1.08,.25,2.16,.48,3.24,.71l28.64-138.65,.02,8.62,.14,132.99h.17l1.31,551.04h-1.63Zm145.59-15.09l-140.25-667.72,52.49,119.5c1.42-.62,2.82-1.27,4.22-1.93l222.67,505.43c-44.6,19.65-91.41,34.69-139.13,44.72ZM2.67,1195.73c-44.64-19.55-87.38-43.84-127.04-72.19L197.47,673.35c1.54,1.2,3.11,2.36,4.69,3.49l71.95-100.88L2.67,1195.73Zm694.88-73.04L305.66,576.89l87.06,79.7c1.53-1.67,3.02-3.37,4.47-5.12l409.57,374.15c-32.86,35.97-69.6,68.63-109.2,97.06Zm-931.33-95.99c-33.17-36.16-62.59-75.89-87.45-118.08L157.87,626.32c1,1.87,2.03,3.71,3.11,5.52l100.27-59.23-495.02,454.09Zm1127.76-119.37L307.54,563.47l116.99,38.58c.41-1.23,.8-2.47,1.17-3.71l529.27,173.86c-15.43,46.96-35.94,92.42-60.99,135.13ZM-382.5,773.62c-15.56-47.04-26.11-95.9-31.35-145.22l554.38-58.89c.03,.29,.06,.57,.09,.86l134.99-14.49-658.1,217.75Zm1368.52-146.78l-692.73-72.01,2.98,.98-2.16-.23-1.38-.81-1.1-.11,.41-.24,.21,.07-.16-.1,.12-.07-.16,.05-.39-.23,1.04-.11,1.43-.85,2.2-.23-3.07,1.02,692.52-74.36c2.65,24.72,4,49.89,4,74.81,0,24.11-1.26,48.48-3.75,72.43Zm-719.57-49.99l9.06-12.68,5.07-2.99-1.97,4.49-12.17,11.19Zm31.52-.87l-8.22-11.48-.57-2.71,4.26,3.9,4.54,10.3Zm12.8-3.46l-14.25-8.38-4.07-5.67,4.61,1.52,13.71,12.52Zm-30.05-.48l1.57-7.56,3.25-4.56-.11-.52-2.58,2.37,.46-2.21,1.92-1.13-.07-.32,.02,.02-.02-.03-.03-.14,.09,.2,.18,.16,.57-.34,.02,.89h-.02s0,.35,0,.35l-.15-.2-.16,.15,.15,.35,.15-.22,.02,.66v.03s0,2.02,0,2.02l-.29-1.38-4.97,11.39Zm4.52-13.83l.07,.16,.03-.02-.1-.15Zm-20.88,5.34l13.48-7.94,2.17-.23-5.09,4.67-10.56,3.51Zm27.08-2.4l-2.73-1.61-.52-2.48,1.7,.56,1.55,3.53Zm-11.88-2.65l2.18-3.05-.37-.22,.58-.07h0s.36-.03,.36-.03l.8,.26-.26,.6,.35,.32-.39-.23-.69,1.57-2.56,.85Zm7.28-.41h0s.77-1.08,.77-1.08l.15-.09,.26,.08-1.18,1.09Zm.03-.14l.12-.57,.18-.1-.29,.67Zm-.9-.01l-.96-.56-.13-.64-.25,.08,.2,.45-.51-.34-.05,.02-.37-.22,.06-.3-.7-.98,.85,.28v-.06s.05,.08,.05,.08l.55,.18-.21-1.02,1.47-.16,.02,1.63h-.02s0,1.57,0,1.57Zm-2.15-.85l.04-.17,.13,.12-.16,.05Zm4.32-.19l-.04-.17,.63-.37-.6,.55Zm-.27-1.26l-.15-.73-.22-.02,.06-.31h.09s-.04-.22-.04-.22l.02-.12h-.05s-.07-.36-.07-.36l.2-.02,.16-.78,.32,.73,.51-.05-.25,.57h-.03s.02,.03,.02,.03l-.06,.13h.11s.24,.53,.24,.53l-.55-.06-.3,.68Zm.83-.17l.13-.19,.05,.12-.19,.06Zm3.25-.11l-1.31-.14,.7-.41,.6,.55Zm-8.82-.05l-.17-.24,.29-.03-.12,.27Zm6.9-.15l-.07-.1-.22,.07-.74-.08,.44-.62-.28-.03,.31-.03-.47-.65,.67-.07,.26,.09,.1-.12,.27,.25,.83,.27-.07,.07,.2-.02,.67,.22-.68,.23h-.13s.04,.03,.04,.03l-.93,.31-.21,.19Zm-9.42-.34l-.29-.17,.35-.04,.12,.04-.18,.17Zm5.33-.09l-1.54-.16-.04-.17,.04-.19,1.44-.15-1.37-.14,.22-1.07-.56,.18-.03,.07v-.06s-.85,.28-.85,.28l.69-.97-.06-.3,.33-.2,.07,.02,.08-.11,.43-.26-.21,.47,.26,.09,.14-.67,.95-.56,.02,1.59h-.02s0,1.62,0,1.62h.02s0,.02,0,.02h-.02s0,.66,0,.66Zm-2.44-.26l-.77-.08,.77-.08,.03,.08-.04,.08Zm-3.56-.05l-.04-.02,.05-.03,.08,.02-.08,.03Zm.74-.24l-.35-.04,.28-.16,.18,.16-.11,.04Zm10.64-.21l-.71-.41,1.31-.14-.6,.55Zm-8.05-.17l-.34-.04,.2-.28,.14,.31Zm-1.09-.11l-.26-.06-.03,.03-.61-.06,.44-.26-2.15-2.99,2.55,.84,.67,1.52,.39-.23-.35,.32,.26,.59-.91,.3Zm6.64-.22l-.08-.12,.12,.04-.03,.08Zm-8.77,0l-2.12-.22-13.27-7.8,10.33,3.39,5.05,4.63Zm-4.18-.44l-135.33-14.07c-.02,.16-.03,.32-.05,.48l-554.44-58.3c5.19-49.34,15.69-98.22,31.21-145.29l658.61,217.18Zm12.94-.53l-.74-.43,.04-.2,.7,.64Zm-4.98-.63l-.03-.14,.13,.04-.1,.09Zm3.88-.01l-.09-.06-.8-1.12,1.19,1.08-.29,.1Zm.43-.14l.51-2.47,2.7-1.59-1.53,3.5-1.68,.56Zm-.97-.18l-.2-.12-.14-.64,.33,.76Zm-1.24-.73l-.58-.34-.17,.16-.07,.15,.05-.14-.03,.03,.06-.29-1.91-1.12-.47-2.23,2.58,2.36,.11-.52-3.25-4.53-1.57-7.51,4.98,11.29,.25-1.22,.03,1.97-.03,.07v.51s-.14-.2-.14-.2l-.15,.35,.17,.16,.12-.17,.03,.34-.03,.03v.86Zm-.66-.39l-.08,.19,.12-.17-.04-.02Zm7.11-.11l4.01-5.63,14.02-8.26-13.46,12.38-4.57,1.51Zm-11.8-2.64l-5.04-2.96-9-12.56,12.06,11.02,1.97,4.5Zm8.52-.64l.55-2.67,8.05-11.26-4.4,10.07-4.2,3.85Zm-3.19-.61l-29.08-138.45c-.98,.21-1.96,.42-2.93,.65L141.17-131.19c47.2-9.86,95.67-14.88,144.07-14.94l.59,551.04h-.22l.34,141.5Zm21.44-1.06L892.83,199.51c25.18,42.62,45.84,88.01,61.42,134.91L425.57,510.02c-.35-1.14-.71-2.28-1.09-3.42l-117.1,38.75Zm-16.16-8.47L429.31-131.51c47.77,9.87,94.64,24.76,139.32,44.27l-221.03,506.14c-1.3-.61-2.6-1.21-3.92-1.79l-52.45,119.77Zm-29.7-.4l-100.8-59.11c-1.01,1.72-1.98,3.46-2.93,5.23L-321.58,200.79c24.82-42.23,54.21-81.99,87.35-118.19l495.76,453.89Zm12.66-3.43l-72.4-100.83c-1.5,1.07-2.98,2.18-4.43,3.31L-124.92-14.34C-85.32-42.71-42.62-67.03,1.97-86.62L274.18,533.06Zm31.18-.92L695.73-15.2c39.7,28.31,76.55,60.86,109.53,96.73L396.88,456.96c-1.39-1.65-2.81-3.27-4.26-4.86l-87.25,80.04Z"/>
      </g>
    </g>
  </g>
</svg>